<svg height="25" viewBox="0 0 512 512" width="25" xmlns="http://www.w3.org/2000/svg"><path d="m512 256c0 141.386719-114.613281 256-256 256s-256-114.613281-256-256 114.613281-256 256-256 256 114.613281 256 256zm0 0" fill="#414952"/><path d="m512 256c0-7.085938-.300781-14.101562-.867188-21.039062l-127.707031-127.707032-242.851562 309.492188 94.386719 94.390625c6.9375.5625 13.953124.863281 21.039062.863281 141.386719 0 256-114.613281 256-256zm0 0" fill="#333940"/><path d="m322.289062 323.355469 61.136719-216.101563-137.550781 137.550782-44.164062-44.160157-61.136719 216.101563 137.550781-137.550782zm0 0" fill="#fdba12"/><path d="m255.644531 235.035156v66.640625l22.480469-22.480469 44.164062 44.160157 61.136719-216.101563zm0 0" fill="#ffa300"/></svg>